<?xml version="1.0" encoding="utf-8" standalone="no"?>
<!DOCTYPE svg PUBLIC "-//W3C//DTD SVG 1.1//EN"
  "http://www.w3.org/Graphics/SVG/1.1/DTD/svg11.dtd">
<svg xmlns:xlink="http://www.w3.org/1999/xlink" width="460.8pt" height="345.6pt" viewBox="0 0 460.8 345.6" xmlns="http://www.w3.org/2000/svg" version="1.1">
 <metadata>
  <rdf:RDF xmlns:dc="http://purl.org/dc/elements/1.1/" xmlns:cc="http://creativecommons.org/ns#" xmlns:rdf="http://www.w3.org/1999/02/22-rdf-syntax-ns#">
   <cc:Work>
    <dc:type rdf:resource="http://purl.org/dc/dcmitype/StillImage"/>
    <dc:date>2025-03-01T22:06:20.364289</dc:date>
    <dc:format>image/svg+xml</dc:format>
    <dc:creator>
     <cc:Agent>
      <dc:title>Matplotlib v3.10.1, https://matplotlib.org/</dc:title>
     </cc:Agent>
    </dc:creator>
   </cc:Work>
  </rdf:RDF>
 </metadata>
 <defs>
  <style type="text/css">*{stroke-linejoin: round; stroke-linecap: butt}</style>
 </defs>
 <g id="figure_1">
  <g id="patch_1">
   <path d="M 0 345.6 
L 460.8 345.6 
L 460.8 0 
L 0 0 
z
" style="fill: #ffffff"/>
  </g>
  <g id="axes_1">
   <g id="patch_2">
    <path d="M 57.6 307.584 
L 414.72 307.584 
L 414.72 41.472 
L 57.6 41.472 
z
" style="fill: #ffffff"/>
   </g>
   <g id="matplotlib.axis_1">
    <g id="xtick_1">
     <g id="line2d_1">
      <path d="M 73.832727 307.584 
L 73.832727 41.472 
" clip-path="url(#p523b812624)" style="fill: none; stroke: #b0b0b0; stroke-width: 0.8; stroke-linecap: square"/>
     </g>
     <g id="line2d_2">
      <defs>
       <path id="m2157b457ba" d="M 0 0 
L 0 3.5 
" style="stroke: #000000; stroke-width: 0.8"/>
      </defs>
      <g>
       <use xlink:href="#m2157b457ba" x="73.832727" y="307.584" style="stroke: #000000; stroke-width: 0.8"/>
      </g>
     </g>
     <g id="text_1">
      <!-- 0.0 -->
      <g transform="translate(65.881165 322.182437) scale(0.1 -0.1)">
       <defs>
        <path id="DejaVuSans-30" d="M 2034 4250 
Q 1547 4250 1301 3770 
Q 1056 3291 1056 2328 
Q 1056 1369 1301 889 
Q 1547 409 2034 409 
Q 2525 409 2770 889 
Q 3016 1369 3016 2328 
Q 3016 3291 2770 3770 
Q 2525 4250 2034 4250 
z
M 2034 4750 
Q 2819 4750 3233 4129 
Q 3647 3509 3647 2328 
Q 3647 1150 3233 529 
Q 2819 -91 2034 -91 
Q 1250 -91 836 529 
Q 422 1150 422 2328 
Q 422 3509 836 4129 
Q 1250 4750 2034 4750 
z
" transform="scale(0.015625)"/>
        <path id="DejaVuSans-2e" d="M 684 794 
L 1344 794 
L 1344 0 
L 684 0 
L 684 794 
z
" transform="scale(0.015625)"/>
       </defs>
       <use xlink:href="#DejaVuSans-30"/>
       <use xlink:href="#DejaVuSans-2e" transform="translate(63.623047 0)"/>
       <use xlink:href="#DejaVuSans-30" transform="translate(95.410156 0)"/>
      </g>
     </g>
    </g>
    <g id="xtick_2">
     <g id="line2d_3">
      <path d="M 124.829344 307.584 
L 124.829344 41.472 
" clip-path="url(#p523b812624)" style="fill: none; stroke: #b0b0b0; stroke-width: 0.8; stroke-linecap: square"/>
     </g>
     <g id="line2d_4">
      <g>
       <use xlink:href="#m2157b457ba" x="124.829344" y="307.584" style="stroke: #000000; stroke-width: 0.8"/>
      </g>
     </g>
     <g id="text_2">
      <!-- 0.5 -->
      <g transform="translate(116.877782 322.182437) scale(0.1 -0.1)">
       <defs>
        <path id="DejaVuSans-35" d="M 691 4666 
L 3169 4666 
L 3169 4134 
L 1269 4134 
L 1269 2991 
Q 1406 3038 1543 3061 
Q 1681 3084 1819 3084 
Q 2600 3084 3056 2656 
Q 3513 2228 3513 1497 
Q 3513 744 3044 326 
Q 2575 -91 1722 -91 
Q 1428 -91 1123 -41 
Q 819 9 494 109 
L 494 744 
Q 775 591 1075 516 
Q 1375 441 1709 441 
Q 2250 441 2565 725 
Q 2881 1009 2881 1497 
Q 2881 1984 2565 2268 
Q 2250 2553 1709 2553 
Q 1456 2553 1204 2497 
Q 953 2441 691 2322 
L 691 4666 
z
" transform="scale(0.015625)"/>
       </defs>
       <use xlink:href="#DejaVuSans-30"/>
       <use xlink:href="#DejaVuSans-2e" transform="translate(63.623047 0)"/>
       <use xlink:href="#DejaVuSans-35" transform="translate(95.410156 0)"/>
      </g>
     </g>
    </g>
    <g id="xtick_3">
     <g id="line2d_5">
      <path d="M 175.825961 307.584 
L 175.825961 41.472 
" clip-path="url(#p523b812624)" style="fill: none; stroke: #b0b0b0; stroke-width: 0.8; stroke-linecap: square"/>
     </g>
     <g id="line2d_6">
      <g>
       <use xlink:href="#m2157b457ba" x="175.825961" y="307.584" style="stroke: #000000; stroke-width: 0.8"/>
      </g>
     </g>
     <g id="text_3">
      <!-- 1.0 -->
      <g transform="translate(167.874398 322.182437) scale(0.1 -0.1)">
       <defs>
        <path id="DejaVuSans-31" d="M 794 531 
L 1825 531 
L 1825 4091 
L 703 3866 
L 703 4441 
L 1819 4666 
L 2450 4666 
L 2450 531 
L 3481 531 
L 3481 0 
L 794 0 
L 794 531 
z
" transform="scale(0.015625)"/>
       </defs>
       <use xlink:href="#DejaVuSans-31"/>
       <use xlink:href="#DejaVuSans-2e" transform="translate(63.623047 0)"/>
       <use xlink:href="#DejaVuSans-30" transform="translate(95.410156 0)"/>
      </g>
     </g>
    </g>
    <g id="xtick_4">
     <g id="line2d_7">
      <path d="M 226.822578 307.584 
L 226.822578 41.472 
" clip-path="url(#p523b812624)" style="fill: none; stroke: #b0b0b0; stroke-width: 0.8; stroke-linecap: square"/>
     </g>
     <g id="line2d_8">
      <g>
       <use xlink:href="#m2157b457ba" x="226.822578" y="307.584" style="stroke: #000000; stroke-width: 0.8"/>
      </g>
     </g>
     <g id="text_4">
      <!-- 1.5 -->
      <g transform="translate(218.871015 322.182437) scale(0.1 -0.1)">
       <use xlink:href="#DejaVuSans-31"/>
       <use xlink:href="#DejaVuSans-2e" transform="translate(63.623047 0)"/>
       <use xlink:href="#DejaVuSans-35" transform="translate(95.410156 0)"/>
      </g>
     </g>
    </g>
    <g id="xtick_5">
     <g id="line2d_9">
      <path d="M 277.819194 307.584 
L 277.819194 41.472 
" clip-path="url(#p523b812624)" style="fill: none; stroke: #b0b0b0; stroke-width: 0.8; stroke-linecap: square"/>
     </g>
     <g id="line2d_10">
      <g>
       <use xlink:href="#m2157b457ba" x="277.819194" y="307.584" style="stroke: #000000; stroke-width: 0.8"/>
      </g>
     </g>
     <g id="text_5">
      <!-- 2.0 -->
      <g transform="translate(269.867632 322.182437) scale(0.1 -0.1)">
       <defs>
        <path id="DejaVuSans-32" d="M 1228 531 
L 3431 531 
L 3431 0 
L 469 0 
L 469 531 
Q 828 903 1448 1529 
Q 2069 2156 2228 2338 
Q 2531 2678 2651 2914 
Q 2772 3150 2772 3378 
Q 2772 3750 2511 3984 
Q 2250 4219 1831 4219 
Q 1534 4219 1204 4116 
Q 875 4013 500 3803 
L 500 4441 
Q 881 4594 1212 4672 
Q 1544 4750 1819 4750 
Q 2544 4750 2975 4387 
Q 3406 4025 3406 3419 
Q 3406 3131 3298 2873 
Q 3191 2616 2906 2266 
Q 2828 2175 2409 1742 
Q 1991 1309 1228 531 
z
" transform="scale(0.015625)"/>
       </defs>
       <use xlink:href="#DejaVuSans-32"/>
       <use xlink:href="#DejaVuSans-2e" transform="translate(63.623047 0)"/>
       <use xlink:href="#DejaVuSans-30" transform="translate(95.410156 0)"/>
      </g>
     </g>
    </g>
    <g id="xtick_6">
     <g id="line2d_11">
      <path d="M 328.815811 307.584 
L 328.815811 41.472 
" clip-path="url(#p523b812624)" style="fill: none; stroke: #b0b0b0; stroke-width: 0.8; stroke-linecap: square"/>
     </g>
     <g id="line2d_12">
      <g>
       <use xlink:href="#m2157b457ba" x="328.815811" y="307.584" style="stroke: #000000; stroke-width: 0.8"/>
      </g>
     </g>
     <g id="text_6">
      <!-- 2.5 -->
      <g transform="translate(320.864249 322.182437) scale(0.1 -0.1)">
       <use xlink:href="#DejaVuSans-32"/>
       <use xlink:href="#DejaVuSans-2e" transform="translate(63.623047 0)"/>
       <use xlink:href="#DejaVuSans-35" transform="translate(95.410156 0)"/>
      </g>
     </g>
    </g>
    <g id="xtick_7">
     <g id="line2d_13">
      <path d="M 379.812428 307.584 
L 379.812428 41.472 
" clip-path="url(#p523b812624)" style="fill: none; stroke: #b0b0b0; stroke-width: 0.8; stroke-linecap: square"/>
     </g>
     <g id="line2d_14">
      <g>
       <use xlink:href="#m2157b457ba" x="379.812428" y="307.584" style="stroke: #000000; stroke-width: 0.8"/>
      </g>
     </g>
     <g id="text_7">
      <!-- 3.0 -->
      <g transform="translate(371.860865 322.182437) scale(0.1 -0.1)">
       <defs>
        <path id="DejaVuSans-33" d="M 2597 2516 
Q 3050 2419 3304 2112 
Q 3559 1806 3559 1356 
Q 3559 666 3084 287 
Q 2609 -91 1734 -91 
Q 1441 -91 1130 -33 
Q 819 25 488 141 
L 488 750 
Q 750 597 1062 519 
Q 1375 441 1716 441 
Q 2309 441 2620 675 
Q 2931 909 2931 1356 
Q 2931 1769 2642 2001 
Q 2353 2234 1838 2234 
L 1294 2234 
L 1294 2753 
L 1863 2753 
Q 2328 2753 2575 2939 
Q 2822 3125 2822 3475 
Q 2822 3834 2567 4026 
Q 2313 4219 1838 4219 
Q 1578 4219 1281 4162 
Q 984 4106 628 3988 
L 628 4550 
Q 988 4650 1302 4700 
Q 1616 4750 1894 4750 
Q 2613 4750 3031 4423 
Q 3450 4097 3450 3541 
Q 3450 3153 3228 2886 
Q 3006 2619 2597 2516 
z
" transform="scale(0.015625)"/>
       </defs>
       <use xlink:href="#DejaVuSans-33"/>
       <use xlink:href="#DejaVuSans-2e" transform="translate(63.623047 0)"/>
       <use xlink:href="#DejaVuSans-30" transform="translate(95.410156 0)"/>
      </g>
     </g>
    </g>
    <g id="text_8">
     <!-- Time $t$ [Earth years] -->
     <g transform="translate(185.96 335.862125) scale(0.1 -0.1)">
      <defs>
       <path id="DejaVuSans-54" d="M -19 4666 
L 3928 4666 
L 3928 4134 
L 2272 4134 
L 2272 0 
L 1638 0 
L 1638 4134 
L -19 4134 
L -19 4666 
z
" transform="scale(0.015625)"/>
       <path id="DejaVuSans-69" d="M 603 3500 
L 1178 3500 
L 1178 0 
L 603 0 
L 603 3500 
z
M 603 4863 
L 1178 4863 
L 1178 4134 
L 603 4134 
L 603 4863 
z
" transform="scale(0.015625)"/>
       <path id="DejaVuSans-6d" d="M 3328 2828 
Q 3544 3216 3844 3400 
Q 4144 3584 4550 3584 
Q 5097 3584 5394 3201 
Q 5691 2819 5691 2113 
L 5691 0 
L 5113 0 
L 5113 2094 
Q 5113 2597 4934 2840 
Q 4756 3084 4391 3084 
Q 3944 3084 3684 2787 
Q 3425 2491 3425 1978 
L 3425 0 
L 2847 0 
L 2847 2094 
Q 2847 2600 2669 2842 
Q 2491 3084 2119 3084 
Q 1678 3084 1418 2786 
Q 1159 2488 1159 1978 
L 1159 0 
L 581 0 
L 581 3500 
L 1159 3500 
L 1159 2956 
Q 1356 3278 1631 3431 
Q 1906 3584 2284 3584 
Q 2666 3584 2933 3390 
Q 3200 3197 3328 2828 
z
" transform="scale(0.015625)"/>
       <path id="DejaVuSans-65" d="M 3597 1894 
L 3597 1613 
L 953 1613 
Q 991 1019 1311 708 
Q 1631 397 2203 397 
Q 2534 397 2845 478 
Q 3156 559 3463 722 
L 3463 178 
Q 3153 47 2828 -22 
Q 2503 -91 2169 -91 
Q 1331 -91 842 396 
Q 353 884 353 1716 
Q 353 2575 817 3079 
Q 1281 3584 2069 3584 
Q 2775 3584 3186 3129 
Q 3597 2675 3597 1894 
z
M 3022 2063 
Q 3016 2534 2758 2815 
Q 2500 3097 2075 3097 
Q 1594 3097 1305 2825 
Q 1016 2553 972 2059 
L 3022 2063 
z
" transform="scale(0.015625)"/>
       <path id="DejaVuSans-20" transform="scale(0.015625)"/>
       <path id="DejaVuSans-Oblique-74" d="M 2706 3500 
L 2619 3053 
L 1472 3053 
L 1100 1153 
Q 1081 1047 1072 975 
Q 1063 903 1063 863 
Q 1063 663 1183 572 
Q 1303 481 1569 481 
L 2150 481 
L 2053 0 
L 1503 0 
Q 991 0 739 200 
Q 488 400 488 806 
Q 488 878 497 964 
Q 506 1050 525 1153 
L 897 3053 
L 409 3053 
L 500 3500 
L 978 3500 
L 1172 4494 
L 1747 4494 
L 1556 3500 
L 2706 3500 
z
" transform="scale(0.015625)"/>
       <path id="DejaVuSans-5b" d="M 550 4863 
L 1875 4863 
L 1875 4416 
L 1125 4416 
L 1125 -397 
L 1875 -397 
L 1875 -844 
L 550 -844 
L 550 4863 
z
" transform="scale(0.015625)"/>
       <path id="DejaVuSans-45" d="M 628 4666 
L 3578 4666 
L 3578 4134 
L 1259 4134 
L 1259 2753 
L 3481 2753 
L 3481 2222 
L 1259 2222 
L 1259 531 
L 3634 531 
L 3634 0 
L 628 0 
L 628 4666 
z
" transform="scale(0.015625)"/>
       <path id="DejaVuSans-61" d="M 2194 1759 
Q 1497 1759 1228 1600 
Q 959 1441 959 1056 
Q 959 750 1161 570 
Q 1363 391 1709 391 
Q 2188 391 2477 730 
Q 2766 1069 2766 1631 
L 2766 1759 
L 2194 1759 
z
M 3341 1997 
L 3341 0 
L 2766 0 
L 2766 531 
Q 2569 213 2275 61 
Q 1981 -91 1556 -91 
Q 1019 -91 701 211 
Q 384 513 384 1019 
Q 384 1609 779 1909 
Q 1175 2209 1959 2209 
L 2766 2209 
L 2766 2266 
Q 2766 2663 2505 2880 
Q 2244 3097 1772 3097 
Q 1472 3097 1187 3025 
Q 903 2953 641 2809 
L 641 3341 
Q 956 3463 1253 3523 
Q 1550 3584 1831 3584 
Q 2591 3584 2966 3190 
Q 3341 2797 3341 1997 
z
" transform="scale(0.015625)"/>
       <path id="DejaVuSans-72" d="M 2631 2963 
Q 2534 3019 2420 3045 
Q 2306 3072 2169 3072 
Q 1681 3072 1420 2755 
Q 1159 2438 1159 1844 
L 1159 0 
L 581 0 
L 581 3500 
L 1159 3500 
L 1159 2956 
Q 1341 3275 1631 3429 
Q 1922 3584 2338 3584 
Q 2397 3584 2469 3576 
Q 2541 3569 2628 3553 
L 2631 2963 
z
" transform="scale(0.015625)"/>
       <path id="DejaVuSans-74" d="M 1172 4494 
L 1172 3500 
L 2356 3500 
L 2356 3053 
L 1172 3053 
L 1172 1153 
Q 1172 725 1289 603 
Q 1406 481 1766 481 
L 2356 481 
L 2356 0 
L 1766 0 
Q 1100 0 847 248 
Q 594 497 594 1153 
L 594 3053 
L 172 3053 
L 172 3500 
L 594 3500 
L 594 4494 
L 1172 4494 
z
" transform="scale(0.015625)"/>
       <path id="DejaVuSans-68" d="M 3513 2113 
L 3513 0 
L 2938 0 
L 2938 2094 
Q 2938 2591 2744 2837 
Q 2550 3084 2163 3084 
Q 1697 3084 1428 2787 
Q 1159 2491 1159 1978 
L 1159 0 
L 581 0 
L 581 4863 
L 1159 4863 
L 1159 2956 
Q 1366 3272 1645 3428 
Q 1925 3584 2291 3584 
Q 2894 3584 3203 3211 
Q 3513 2838 3513 2113 
z
" transform="scale(0.015625)"/>
       <path id="DejaVuSans-79" d="M 2059 -325 
Q 1816 -950 1584 -1140 
Q 1353 -1331 966 -1331 
L 506 -1331 
L 506 -850 
L 844 -850 
Q 1081 -850 1212 -737 
Q 1344 -625 1503 -206 
L 1606 56 
L 191 3500 
L 800 3500 
L 1894 763 
L 2988 3500 
L 3597 3500 
L 2059 -325 
z
" transform="scale(0.015625)"/>
       <path id="DejaVuSans-73" d="M 2834 3397 
L 2834 2853 
Q 2591 2978 2328 3040 
Q 2066 3103 1784 3103 
Q 1356 3103 1142 2972 
Q 928 2841 928 2578 
Q 928 2378 1081 2264 
Q 1234 2150 1697 2047 
L 1894 2003 
Q 2506 1872 2764 1633 
Q 3022 1394 3022 966 
Q 3022 478 2636 193 
Q 2250 -91 1575 -91 
Q 1294 -91 989 -36 
Q 684 19 347 128 
L 347 722 
Q 666 556 975 473 
Q 1284 391 1588 391 
Q 1994 391 2212 530 
Q 2431 669 2431 922 
Q 2431 1156 2273 1281 
Q 2116 1406 1581 1522 
L 1381 1569 
Q 847 1681 609 1914 
Q 372 2147 372 2553 
Q 372 3047 722 3315 
Q 1072 3584 1716 3584 
Q 2034 3584 2315 3537 
Q 2597 3491 2834 3397 
z
" transform="scale(0.015625)"/>
       <path id="DejaVuSans-5d" d="M 1947 4863 
L 1947 -844 
L 622 -844 
L 622 -397 
L 1369 -397 
L 1369 4416 
L 622 4416 
L 622 4863 
L 1947 4863 
z
" transform="scale(0.015625)"/>
      </defs>
      <use xlink:href="#DejaVuSans-54" transform="translate(0 0.015625)"/>
      <use xlink:href="#DejaVuSans-69" transform="translate(61.083984 0.015625)"/>
      <use xlink:href="#DejaVuSans-6d" transform="translate(88.867188 0.015625)"/>
      <use xlink:href="#DejaVuSans-65" transform="translate(186.279297 0.015625)"/>
      <use xlink:href="#DejaVuSans-20" transform="translate(247.802734 0.015625)"/>
      <use xlink:href="#DejaVuSans-Oblique-74" transform="translate(279.589844 0.015625)"/>
      <use xlink:href="#DejaVuSans-20" transform="translate(318.798828 0.015625)"/>
      <use xlink:href="#DejaVuSans-5b" transform="translate(350.585938 0.015625)"/>
      <use xlink:href="#DejaVuSans-45" transform="translate(389.599609 0.015625)"/>
      <use xlink:href="#DejaVuSans-61" transform="translate(452.783203 0.015625)"/>
      <use xlink:href="#DejaVuSans-72" transform="translate(514.0625 0.015625)"/>
      <use xlink:href="#DejaVuSans-74" transform="translate(555.175781 0.015625)"/>
      <use xlink:href="#DejaVuSans-68" transform="translate(594.384766 0.015625)"/>
      <use xlink:href="#DejaVuSans-20" transform="translate(657.763672 0.015625)"/>
      <use xlink:href="#DejaVuSans-79" transform="translate(689.550781 0.015625)"/>
      <use xlink:href="#DejaVuSans-65" transform="translate(748.730469 0.015625)"/>
      <use xlink:href="#DejaVuSans-61" transform="translate(810.253906 0.015625)"/>
      <use xlink:href="#DejaVuSans-72" transform="translate(871.533203 0.015625)"/>
      <use xlink:href="#DejaVuSans-73" transform="translate(912.646484 0.015625)"/>
      <use xlink:href="#DejaVuSans-5d" transform="translate(964.746094 0.015625)"/>
     </g>
    </g>
   </g>
   <g id="matplotlib.axis_2">
    <g id="ytick_1">
     <g id="line2d_15">
      <path d="M 57.6 294.782759 
L 414.72 294.782759 
" clip-path="url(#p523b812624)" style="fill: none; stroke: #b0b0b0; stroke-width: 0.8; stroke-linecap: square"/>
     </g>
     <g id="line2d_16">
      <defs>
       <path id="m449977a8b3" d="M 0 0 
L -3.5 0 
" style="stroke: #000000; stroke-width: 0.8"/>
      </defs>
      <g>
       <use xlink:href="#m449977a8b3" x="57.6" y="294.782759" style="stroke: #000000; stroke-width: 0.8"/>
      </g>
     </g>
     <g id="text_9">
      <!-- 9.95 -->
      <g transform="translate(28.334375 298.581978) scale(0.1 -0.1)">
       <defs>
        <path id="DejaVuSans-39" d="M 703 97 
L 703 672 
Q 941 559 1184 500 
Q 1428 441 1663 441 
Q 2288 441 2617 861 
Q 2947 1281 2994 2138 
Q 2813 1869 2534 1725 
Q 2256 1581 1919 1581 
Q 1219 1581 811 2004 
Q 403 2428 403 3163 
Q 403 3881 828 4315 
Q 1253 4750 1959 4750 
Q 2769 4750 3195 4129 
Q 3622 3509 3622 2328 
Q 3622 1225 3098 567 
Q 2575 -91 1691 -91 
Q 1453 -91 1209 -44 
Q 966 3 703 97 
z
M 1959 2075 
Q 2384 2075 2632 2365 
Q 2881 2656 2881 3163 
Q 2881 3666 2632 3958 
Q 2384 4250 1959 4250 
Q 1534 4250 1286 3958 
Q 1038 3666 1038 3163 
Q 1038 2656 1286 2365 
Q 1534 2075 1959 2075 
z
" transform="scale(0.015625)"/>
       </defs>
       <use xlink:href="#DejaVuSans-39"/>
       <use xlink:href="#DejaVuSans-2e" transform="translate(63.623047 0)"/>
       <use xlink:href="#DejaVuSans-39" transform="translate(95.410156 0)"/>
       <use xlink:href="#DejaVuSans-35" transform="translate(159.033203 0)"/>
      </g>
     </g>
    </g>
    <g id="ytick_2">
     <g id="line2d_17">
      <path d="M 57.6 244.844881 
L 414.72 244.844881 
" clip-path="url(#p523b812624)" style="fill: none; stroke: #b0b0b0; stroke-width: 0.8; stroke-linecap: square"/>
     </g>
     <g id="line2d_18">
      <g>
       <use xlink:href="#m449977a8b3" x="57.6" y="244.844881" style="stroke: #000000; stroke-width: 0.8"/>
      </g>
     </g>
     <g id="text_10">
      <!-- 10.00 -->
      <g transform="translate(21.971875 248.644099) scale(0.1 -0.1)">
       <use xlink:href="#DejaVuSans-31"/>
       <use xlink:href="#DejaVuSans-30" transform="translate(63.623047 0)"/>
       <use xlink:href="#DejaVuSans-2e" transform="translate(127.246094 0)"/>
       <use xlink:href="#DejaVuSans-30" transform="translate(159.033203 0)"/>
       <use xlink:href="#DejaVuSans-30" transform="translate(222.65625 0)"/>
      </g>
     </g>
    </g>
    <g id="ytick_3">
     <g id="line2d_19">
      <path d="M 57.6 194.907002 
L 414.72 194.907002 
" clip-path="url(#p523b812624)" style="fill: none; stroke: #b0b0b0; stroke-width: 0.8; stroke-linecap: square"/>
     </g>
     <g id="line2d_20">
      <g>
       <use xlink:href="#m449977a8b3" x="57.6" y="194.907002" style="stroke: #000000; stroke-width: 0.8"/>
      </g>
     </g>
     <g id="text_11">
      <!-- 10.05 -->
      <g transform="translate(21.971875 198.706221) scale(0.1 -0.1)">
       <use xlink:href="#DejaVuSans-31"/>
       <use xlink:href="#DejaVuSans-30" transform="translate(63.623047 0)"/>
       <use xlink:href="#DejaVuSans-2e" transform="translate(127.246094 0)"/>
       <use xlink:href="#DejaVuSans-30" transform="translate(159.033203 0)"/>
       <use xlink:href="#DejaVuSans-35" transform="translate(222.65625 0)"/>
      </g>
     </g>
    </g>
    <g id="ytick_4">
     <g id="line2d_21">
      <path d="M 57.6 144.969123 
L 414.72 144.969123 
" clip-path="url(#p523b812624)" style="fill: none; stroke: #b0b0b0; stroke-width: 0.8; stroke-linecap: square"/>
     </g>
     <g id="line2d_22">
      <g>
       <use xlink:href="#m449977a8b3" x="57.6" y="144.969123" style="stroke: #000000; stroke-width: 0.8"/>
      </g>
     </g>
     <g id="text_12">
      <!-- 10.10 -->
      <g transform="translate(21.971875 148.768342) scale(0.1 -0.1)">
       <use xlink:href="#DejaVuSans-31"/>
       <use xlink:href="#DejaVuSans-30" transform="translate(63.623047 0)"/>
       <use xlink:href="#DejaVuSans-2e" transform="translate(127.246094 0)"/>
       <use xlink:href="#DejaVuSans-31" transform="translate(159.033203 0)"/>
       <use xlink:href="#DejaVuSans-30" transform="translate(222.65625 0)"/>
      </g>
     </g>
    </g>
    <g id="ytick_5">
     <g id="line2d_23">
      <path d="M 57.6 95.031245 
L 414.72 95.031245 
" clip-path="url(#p523b812624)" style="fill: none; stroke: #b0b0b0; stroke-width: 0.8; stroke-linecap: square"/>
     </g>
     <g id="line2d_24">
      <g>
       <use xlink:href="#m449977a8b3" x="57.6" y="95.031245" style="stroke: #000000; stroke-width: 0.8"/>
      </g>
     </g>
     <g id="text_13">
      <!-- 10.15 -->
      <g transform="translate(21.971875 98.830463) scale(0.1 -0.1)">
       <use xlink:href="#DejaVuSans-31"/>
       <use xlink:href="#DejaVuSans-30" transform="translate(63.623047 0)"/>
       <use xlink:href="#DejaVuSans-2e" transform="translate(127.246094 0)"/>
       <use xlink:href="#DejaVuSans-31" transform="translate(159.033203 0)"/>
       <use xlink:href="#DejaVuSans-35" transform="translate(222.65625 0)"/>
      </g>
     </g>
    </g>
    <g id="ytick_6">
     <g id="line2d_25">
      <path d="M 57.6 45.093366 
L 414.72 45.093366 
" clip-path="url(#p523b812624)" style="fill: none; stroke: #b0b0b0; stroke-width: 0.8; stroke-linecap: square"/>
     </g>
     <g id="line2d_26">
      <g>
       <use xlink:href="#m449977a8b3" x="57.6" y="45.093366" style="stroke: #000000; stroke-width: 0.8"/>
      </g>
     </g>
     <g id="text_14">
      <!-- 10.20 -->
      <g transform="translate(21.971875 48.892585) scale(0.1 -0.1)">
       <use xlink:href="#DejaVuSans-31"/>
       <use xlink:href="#DejaVuSans-30" transform="translate(63.623047 0)"/>
       <use xlink:href="#DejaVuSans-2e" transform="translate(127.246094 0)"/>
       <use xlink:href="#DejaVuSans-32" transform="translate(159.033203 0)"/>
       <use xlink:href="#DejaVuSans-30" transform="translate(222.65625 0)"/>
      </g>
     </g>
    </g>
    <g id="text_15">
     <!-- Minutes of Argument of periapsis $\omega$ [$288^\circ$ + '] -->
     <g transform="translate(15.871875 290.928) rotate(-90) scale(0.1 -0.1)">
      <defs>
       <path id="DejaVuSans-4d" d="M 628 4666 
L 1569 4666 
L 2759 1491 
L 3956 4666 
L 4897 4666 
L 4897 0 
L 4281 0 
L 4281 4097 
L 3078 897 
L 2444 897 
L 1241 4097 
L 1241 0 
L 628 0 
L 628 4666 
z
" transform="scale(0.015625)"/>
       <path id="DejaVuSans-6e" d="M 3513 2113 
L 3513 0 
L 2938 0 
L 2938 2094 
Q 2938 2591 2744 2837 
Q 2550 3084 2163 3084 
Q 1697 3084 1428 2787 
Q 1159 2491 1159 1978 
L 1159 0 
L 581 0 
L 581 3500 
L 1159 3500 
L 1159 2956 
Q 1366 3272 1645 3428 
Q 1925 3584 2291 3584 
Q 2894 3584 3203 3211 
Q 3513 2838 3513 2113 
z
" transform="scale(0.015625)"/>
       <path id="DejaVuSans-75" d="M 544 1381 
L 544 3500 
L 1119 3500 
L 1119 1403 
Q 1119 906 1312 657 
Q 1506 409 1894 409 
Q 2359 409 2629 706 
Q 2900 1003 2900 1516 
L 2900 3500 
L 3475 3500 
L 3475 0 
L 2900 0 
L 2900 538 
Q 2691 219 2414 64 
Q 2138 -91 1772 -91 
Q 1169 -91 856 284 
Q 544 659 544 1381 
z
M 1991 3584 
L 1991 3584 
z
" transform="scale(0.015625)"/>
       <path id="DejaVuSans-6f" d="M 1959 3097 
Q 1497 3097 1228 2736 
Q 959 2375 959 1747 
Q 959 1119 1226 758 
Q 1494 397 1959 397 
Q 2419 397 2687 759 
Q 2956 1122 2956 1747 
Q 2956 2369 2687 2733 
Q 2419 3097 1959 3097 
z
M 1959 3584 
Q 2709 3584 3137 3096 
Q 3566 2609 3566 1747 
Q 3566 888 3137 398 
Q 2709 -91 1959 -91 
Q 1206 -91 779 398 
Q 353 888 353 1747 
Q 353 2609 779 3096 
Q 1206 3584 1959 3584 
z
" transform="scale(0.015625)"/>
       <path id="DejaVuSans-66" d="M 2375 4863 
L 2375 4384 
L 1825 4384 
Q 1516 4384 1395 4259 
Q 1275 4134 1275 3809 
L 1275 3500 
L 2222 3500 
L 2222 3053 
L 1275 3053 
L 1275 0 
L 697 0 
L 697 3053 
L 147 3053 
L 147 3500 
L 697 3500 
L 697 3744 
Q 697 4328 969 4595 
Q 1241 4863 1831 4863 
L 2375 4863 
z
" transform="scale(0.015625)"/>
       <path id="DejaVuSans-41" d="M 2188 4044 
L 1331 1722 
L 3047 1722 
L 2188 4044 
z
M 1831 4666 
L 2547 4666 
L 4325 0 
L 3669 0 
L 3244 1197 
L 1141 1197 
L 716 0 
L 50 0 
L 1831 4666 
z
" transform="scale(0.015625)"/>
       <path id="DejaVuSans-67" d="M 2906 1791 
Q 2906 2416 2648 2759 
Q 2391 3103 1925 3103 
Q 1463 3103 1205 2759 
Q 947 2416 947 1791 
Q 947 1169 1205 825 
Q 1463 481 1925 481 
Q 2391 481 2648 825 
Q 2906 1169 2906 1791 
z
M 3481 434 
Q 3481 -459 3084 -895 
Q 2688 -1331 1869 -1331 
Q 1566 -1331 1297 -1286 
Q 1028 -1241 775 -1147 
L 775 -588 
Q 1028 -725 1275 -790 
Q 1522 -856 1778 -856 
Q 2344 -856 2625 -561 
Q 2906 -266 2906 331 
L 2906 616 
Q 2728 306 2450 153 
Q 2172 0 1784 0 
Q 1141 0 747 490 
Q 353 981 353 1791 
Q 353 2603 747 3093 
Q 1141 3584 1784 3584 
Q 2172 3584 2450 3431 
Q 2728 3278 2906 2969 
L 2906 3500 
L 3481 3500 
L 3481 434 
z
" transform="scale(0.015625)"/>
       <path id="DejaVuSans-70" d="M 1159 525 
L 1159 -1331 
L 581 -1331 
L 581 3500 
L 1159 3500 
L 1159 2969 
Q 1341 3281 1617 3432 
Q 1894 3584 2278 3584 
Q 2916 3584 3314 3078 
Q 3713 2572 3713 1747 
Q 3713 922 3314 415 
Q 2916 -91 2278 -91 
Q 1894 -91 1617 61 
Q 1341 213 1159 525 
z
M 3116 1747 
Q 3116 2381 2855 2742 
Q 2594 3103 2138 3103 
Q 1681 3103 1420 2742 
Q 1159 2381 1159 1747 
Q 1159 1113 1420 752 
Q 1681 391 2138 391 
Q 2594 391 2855 752 
Q 3116 1113 3116 1747 
z
" transform="scale(0.015625)"/>
       <path id="DejaVuSans-Oblique-3c9" d="M 1369 -91 
Q 72 -91 434 1766 
Q 575 2500 1256 3500 
L 1875 3500 
Q 1231 2500 1088 1750 
Q 819 397 1519 397 
Q 2166 397 2478 2078 
L 3009 2078 
Q 2669 388 3316 397 
Q 4013 403 4275 1750 
Q 4419 2500 4169 3500 
L 4788 3500 
Q 5075 2500 4934 1766 
Q 4578 -94 3278 -91 
Q 2428 -88 2503 844 
Q 2194 -91 1369 -91 
z
" transform="scale(0.015625)"/>
       <path id="DejaVuSans-38" d="M 2034 2216 
Q 1584 2216 1326 1975 
Q 1069 1734 1069 1313 
Q 1069 891 1326 650 
Q 1584 409 2034 409 
Q 2484 409 2743 651 
Q 3003 894 3003 1313 
Q 3003 1734 2745 1975 
Q 2488 2216 2034 2216 
z
M 1403 2484 
Q 997 2584 770 2862 
Q 544 3141 544 3541 
Q 544 4100 942 4425 
Q 1341 4750 2034 4750 
Q 2731 4750 3128 4425 
Q 3525 4100 3525 3541 
Q 3525 3141 3298 2862 
Q 3072 2584 2669 2484 
Q 3125 2378 3379 2068 
Q 3634 1759 3634 1313 
Q 3634 634 3220 271 
Q 2806 -91 2034 -91 
Q 1263 -91 848 271 
Q 434 634 434 1313 
Q 434 1759 690 2068 
Q 947 2378 1403 2484 
z
M 1172 3481 
Q 1172 3119 1398 2916 
Q 1625 2713 2034 2713 
Q 2441 2713 2670 2916 
Q 2900 3119 2900 3481 
Q 2900 3844 2670 4047 
Q 2441 4250 2034 4250 
Q 1625 4250 1398 4047 
Q 1172 3844 1172 3481 
z
" transform="scale(0.015625)"/>
       <path id="DejaVuSans-2218" d="M 2000 2619 
Q 1750 2619 1578 2445 
Q 1406 2272 1406 2022 
Q 1406 1775 1578 1605 
Q 1750 1435 2000 1435 
Q 2250 1435 2422 1605 
Q 2594 1775 2594 2022 
Q 2594 2269 2420 2444 
Q 2247 2619 2000 2619 
z
M 2000 3022 
Q 2200 3022 2384 2945 
Q 2569 2869 2703 2725 
Q 2847 2585 2919 2406 
Q 2991 2228 2991 2022 
Q 2991 1610 2702 1324 
Q 2413 1038 1994 1038 
Q 1572 1038 1290 1319 
Q 1009 1600 1009 2022 
Q 1009 2441 1296 2731 
Q 1584 3022 2000 3022 
z
" transform="scale(0.015625)"/>
       <path id="DejaVuSans-2b" d="M 2944 4013 
L 2944 2272 
L 4684 2272 
L 4684 1741 
L 2944 1741 
L 2944 0 
L 2419 0 
L 2419 1741 
L 678 1741 
L 678 2272 
L 2419 2272 
L 2419 4013 
L 2944 4013 
z
" transform="scale(0.015625)"/>
       <path id="DejaVuSans-27" d="M 1147 4666 
L 1147 2931 
L 616 2931 
L 616 4666 
L 1147 4666 
z
" transform="scale(0.015625)"/>
      </defs>
      <use xlink:href="#DejaVuSans-4d" transform="translate(0 0.015625)"/>
      <use xlink:href="#DejaVuSans-69" transform="translate(86.279297 0.015625)"/>
      <use xlink:href="#DejaVuSans-6e" transform="translate(114.0625 0.015625)"/>
      <use xlink:href="#DejaVuSans-75" transform="translate(177.441406 0.015625)"/>
      <use xlink:href="#DejaVuSans-74" transform="translate(240.820312 0.015625)"/>
      <use xlink:href="#DejaVuSans-65" transform="translate(280.029297 0.015625)"/>
      <use xlink:href="#DejaVuSans-73" transform="translate(341.552734 0.015625)"/>
      <use xlink:href="#DejaVuSans-20" transform="translate(393.652344 0.015625)"/>
      <use xlink:href="#DejaVuSans-6f" transform="translate(425.439453 0.015625)"/>
      <use xlink:href="#DejaVuSans-66" transform="translate(486.621094 0.015625)"/>
      <use xlink:href="#DejaVuSans-20" transform="translate(521.826172 0.015625)"/>
      <use xlink:href="#DejaVuSans-41" transform="translate(553.613281 0.015625)"/>
      <use xlink:href="#DejaVuSans-72" transform="translate(622.021484 0.015625)"/>
      <use xlink:href="#DejaVuSans-67" transform="translate(663.134766 0.015625)"/>
      <use xlink:href="#DejaVuSans-75" transform="translate(726.611328 0.015625)"/>
      <use xlink:href="#DejaVuSans-6d" transform="translate(789.990234 0.015625)"/>
      <use xlink:href="#DejaVuSans-65" transform="translate(887.402344 0.015625)"/>
      <use xlink:href="#DejaVuSans-6e" transform="translate(948.925781 0.015625)"/>
      <use xlink:href="#DejaVuSans-74" transform="translate(1012.304688 0.015625)"/>
      <use xlink:href="#DejaVuSans-20" transform="translate(1051.513672 0.015625)"/>
      <use xlink:href="#DejaVuSans-6f" transform="translate(1083.300781 0.015625)"/>
      <use xlink:href="#DejaVuSans-66" transform="translate(1144.482422 0.015625)"/>
      <use xlink:href="#DejaVuSans-20" transform="translate(1179.6875 0.015625)"/>
      <use xlink:href="#DejaVuSans-70" transform="translate(1211.474609 0.015625)"/>
      <use xlink:href="#DejaVuSans-65" transform="translate(1274.951172 0.015625)"/>
      <use xlink:href="#DejaVuSans-72" transform="translate(1336.474609 0.015625)"/>
      <use xlink:href="#DejaVuSans-69" transform="translate(1377.587891 0.015625)"/>
      <use xlink:href="#DejaVuSans-61" transform="translate(1405.371094 0.015625)"/>
      <use xlink:href="#DejaVuSans-70" transform="translate(1466.650391 0.015625)"/>
      <use xlink:href="#DejaVuSans-73" transform="translate(1530.126953 0.015625)"/>
      <use xlink:href="#DejaVuSans-69" transform="translate(1582.226562 0.015625)"/>
      <use xlink:href="#DejaVuSans-73" transform="translate(1610.009766 0.015625)"/>
      <use xlink:href="#DejaVuSans-20" transform="translate(1662.109375 0.015625)"/>
      <use xlink:href="#DejaVuSans-Oblique-3c9" transform="translate(1693.896484 0.015625)"/>
      <use xlink:href="#DejaVuSans-20" transform="translate(1777.636719 0.015625)"/>
      <use xlink:href="#DejaVuSans-5b" transform="translate(1809.423828 0.015625)"/>
      <use xlink:href="#DejaVuSans-32" transform="translate(1848.4375 0.015625)"/>
      <use xlink:href="#DejaVuSans-38" transform="translate(1912.060547 0.015625)"/>
      <use xlink:href="#DejaVuSans-38" transform="translate(1975.683594 0.015625)"/>
      <use xlink:href="#DejaVuSans-2218" transform="translate(2053.901367 38.296875) scale(0.7)"/>
      <use xlink:href="#DejaVuSans-20" transform="translate(2114.091797 0.015625)"/>
      <use xlink:href="#DejaVuSans-2b" transform="translate(2145.878906 0.015625)"/>
      <use xlink:href="#DejaVuSans-20" transform="translate(2229.667969 0.015625)"/>
      <use xlink:href="#DejaVuSans-27" transform="translate(2261.455078 0.015625)"/>
      <use xlink:href="#DejaVuSans-5d" transform="translate(2288.945312 0.015625)"/>
     </g>
    </g>
   </g>
   <g id="line2d_27">
    <path d="M 73.832727 280.764405 
L 398.487273 280.764407 
L 398.487273 280.764407 
" clip-path="url(#p523b812624)" style="fill: none; stroke: #1f77b4; stroke-width: 1.5; stroke-linecap: square"/>
   </g>
   <g id="line2d_28">
    <path d="M 73.832727 280.76386 
L 76.267636 293.321853 
L 76.754618 294.617497 
L 77.2416 295.320781 
L 77.566255 295.486721 
L 77.890909 295.43955 
L 78.377891 295.033092 
L 79.0272 294.018058 
L 80.001164 291.891081 
L 84.546327 281.172317 
L 87.143564 276.060049 
L 89.903127 270.503337 
L 91.688727 266.394245 
L 94.772945 259.042085 
L 95.422255 258.058357 
L 95.909236 257.68563 
L 96.233891 257.666062 
L 96.558545 257.863408 
L 96.8832 258.302793 
L 97.370182 259.452821 
L 97.857164 261.20001 
L 98.506473 264.339418 
L 100.616727 275.551828 
L 101.266036 277.499303 
L 101.753018 278.264965 
L 102.077673 278.468158 
L 102.402327 278.45374 
L 102.726982 278.250452 
L 103.213964 277.656516 
L 103.863273 276.471752 
L 104.999564 273.820253 
L 108.083782 266.361354 
L 110.194036 261.983842 
L 114.901527 252.543368 
L 116.849455 247.912518 
L 119.122036 242.450631 
L 119.771345 241.324977 
L 120.258327 240.797289 
L 120.582982 240.649715 
L 120.907636 240.700206 
L 121.232291 240.976646 
L 121.556945 241.502216 
L 122.043927 242.787672 
L 122.693236 245.408747 
L 123.6672 250.727529 
L 124.803491 256.942057 
L 125.4528 259.489989 
L 125.939782 260.715494 
L 126.426764 261.352658 
L 126.751418 261.479419 
L 127.076073 261.397988 
L 127.563055 260.949904 
L 128.212364 259.896545 
L 129.186327 257.741027 
L 133.406836 247.717883 
L 135.841745 242.874597 
L 138.925964 236.717459 
L 140.711564 232.637388 
L 143.958109 224.925372 
L 144.607418 223.982866 
L 145.0944 223.6542 
L 145.419055 223.670477 
L 145.743709 223.908403 
L 146.068364 224.392142 
L 146.555345 225.612193 
L 147.204655 228.15341 
L 148.016291 232.466518 
L 149.477236 240.432837 
L 150.126545 242.811379 
L 150.613527 243.901719 
L 151.100509 244.413598 
L 151.425164 244.466978 
L 151.749818 244.321896 
L 152.2368 243.797189 
L 152.886109 242.674217 
L 153.860073 240.468196 
L 157.755927 231.166813 
L 160.028509 226.595519 
L 163.599709 219.474635 
L 165.385309 215.364496 
L 168.469527 208.014607 
L 169.118836 207.033608 
L 169.605818 206.66381 
L 169.930473 206.64663 
L 170.255127 206.846689 
L 170.579782 207.289047 
L 171.066764 208.443789 
L 171.553745 210.195529 
L 172.365382 214.233465 
L 174.150982 223.897559 
L 174.800291 226.102198 
L 175.287273 227.058504 
L 175.611927 227.377372 
L 175.936582 227.465772 
L 176.261236 227.350983 
L 176.748218 226.862625 
L 177.397527 225.772522 
L 178.371491 223.590122 
L 182.429673 213.927303 
L 184.702255 209.37732 
L 188.111127 202.581929 
L 189.896727 198.48629 
L 193.143273 190.811528 
L 193.792582 189.911904 
L 194.279564 189.628663 
L 194.604218 189.681657 
L 194.928873 189.960906 
L 195.253527 190.489517 
L 195.740509 191.779703 
L 196.389818 194.406496 
L 197.363782 199.729478 
L 198.500073 205.939403 
L 199.149382 208.481516 
L 199.636364 209.702295 
L 200.123345 210.335031 
L 200.448 210.45918 
L 200.772655 210.375472 
L 201.259636 209.924631 
L 201.908945 208.868746 
L 202.882909 206.711366 
L 207.103418 196.689417 
L 209.538327 191.846814 
L 212.622545 185.688824 
L 214.408145 181.607703 
L 217.654691 173.898093 
L 218.304 172.958426 
L 218.790982 172.632779 
L 219.115636 172.651505 
L 219.440291 172.892193 
L 219.764945 173.378942 
L 220.251927 174.603721 
L 220.901236 177.150757 
L 221.712873 181.468175 
L 223.173818 189.429306 
L 223.823127 191.801849 
L 224.310109 192.88749 
L 224.797091 193.395063 
L 225.121745 193.445939 
L 225.4464 193.298698 
L 225.933382 192.771408 
L 226.582691 191.646111 
L 227.556655 189.438435 
L 231.452509 180.138237 
L 233.725091 175.567708 
L 237.296291 168.44594 
L 239.081891 164.334755 
L 242.166109 156.987153 
L 242.815418 156.00889 
L 243.3024 155.642025 
L 243.627055 155.627238 
L 243.951709 155.830012 
L 244.276364 156.275346 
L 244.763345 157.434804 
L 245.250327 159.19109 
L 246.061964 163.234437 
L 247.847564 172.893091 
L 248.496873 175.091598 
L 248.983855 176.043258 
L 249.308509 176.359273 
L 249.633164 176.445117 
L 249.957818 176.328111 
L 250.4448 175.837086 
L 251.094109 174.744562 
L 252.068073 172.560407 
L 256.126255 162.898785 
L 258.398836 158.349521 
L 261.807709 151.553265 
L 263.593309 147.456575 
L 266.839855 139.784449 
L 267.489164 138.887775 
L 267.976145 138.607647 
L 268.3008 138.663147 
L 268.625455 138.945207 
L 268.950109 139.476861 
L 269.437091 140.771776 
L 270.0864 143.404278 
L 271.060364 148.731434 
L 272.196655 154.936724 
L 272.845964 157.47301 
L 273.332945 158.689064 
L 273.819927 159.317376 
L 274.144582 159.438916 
L 274.469236 159.352934 
L 274.956218 158.899341 
L 275.605527 157.840936 
L 276.579491 155.681698 
L 280.8 145.660952 
L 283.234909 140.81903 
L 286.319127 134.660185 
L 288.104727 130.578013 
L 291.351273 122.870825 
L 292.000582 121.934004 
L 292.487564 121.611383 
L 292.812218 121.632561 
L 293.136873 121.876016 
L 293.461527 122.365777 
L 293.948509 123.595281 
L 294.597818 126.14813 
L 295.409455 130.469835 
L 296.8704 138.425737 
L 297.519709 140.792276 
L 298.006691 141.873219 
L 298.493673 142.376489 
L 298.818327 142.424866 
L 299.142982 142.275471 
L 299.629964 141.745604 
L 300.279273 140.617991 
L 301.253236 138.408668 
L 305.149091 129.109662 
L 307.421673 124.539897 
L 310.992873 117.417242 
L 312.778473 113.30501 
L 315.862691 105.959711 
L 316.512 104.984189 
L 316.998982 104.620265 
L 317.323636 104.607875 
L 317.648291 104.813368 
L 317.972945 105.26168 
L 318.459927 106.425856 
L 318.946909 108.186685 
L 319.758545 112.235425 
L 321.544145 121.888591 
L 322.193455 124.080962 
L 322.680436 125.027977 
L 323.005091 125.341142 
L 323.329745 125.424433 
L 323.6544 125.305215 
L 324.141382 124.811528 
L 324.790691 123.716591 
L 325.764655 121.53069 
L 329.822836 111.87027 
L 332.095418 107.321724 
L 335.504291 100.524598 
L 337.289891 96.426861 
L 340.536436 88.757383 
L 341.185745 87.863669 
L 341.672727 87.586659 
L 341.997382 87.644668 
L 342.322036 87.929544 
L 342.646691 88.464242 
L 343.133673 89.763887 
L 343.782982 92.40209 
L 344.756945 97.733393 
L 345.893236 103.934017 
L 346.542545 106.464471 
L 347.029527 107.6758 
L 347.516509 108.299692 
L 347.841164 108.418628 
L 348.165818 108.330378 
L 348.6528 107.874038 
L 349.302109 106.813121 
L 350.276073 104.652034 
L 354.496582 94.632494 
L 356.931491 89.79125 
L 360.015709 83.631549 
L 361.801309 79.548328 
L 365.047855 71.843574 
L 365.697164 70.909608 
L 366.184145 70.590019 
L 366.5088 70.613653 
L 366.833455 70.859878 
L 367.158109 71.352653 
L 367.645091 72.586884 
L 368.2944 75.145539 
L 369.106036 79.471511 
L 370.566982 87.422143 
L 371.216291 89.782674 
L 371.703273 90.858921 
L 372.190255 91.357893 
L 372.514909 91.403775 
L 372.839564 91.252227 
L 373.326545 90.71979 
L 373.975855 89.589866 
L 374.949818 87.378903 
L 378.845673 78.081094 
L 381.118255 73.512092 
L 384.689455 66.388546 
L 386.475055 62.275267 
L 389.559273 54.932283 
L 390.208582 53.95951 
L 390.695564 53.598531 
L 391.020218 53.588544 
L 391.344873 53.796759 
L 391.669527 54.248052 
L 392.156509 55.416945 
L 392.643491 57.182313 
L 393.455127 61.236429 
L 395.240727 70.884058 
L 395.890036 73.070289 
L 396.377018 74.012662 
L 396.701673 74.32298 
L 397.026327 74.403722 
L 397.350982 74.282296 
L 397.837964 73.785955 
L 398.487273 72.688611 
L 398.487273 72.688611 
" clip-path="url(#p523b812624)" style="fill: none; stroke: #ff7f0e; stroke-width: 1.5; stroke-linecap: square"/>
   </g>
   <g id="patch_3">
    <path d="M 57.6 307.584 
L 57.6 41.472 
" style="fill: none; stroke: #000000; stroke-width: 0.8; stroke-linejoin: miter; stroke-linecap: square"/>
   </g>
   <g id="patch_4">
    <path d="M 414.72 307.584 
L 414.72 41.472 
" style="fill: none; stroke: #000000; stroke-width: 0.8; stroke-linejoin: miter; stroke-linecap: square"/>
   </g>
   <g id="patch_5">
    <path d="M 57.6 307.584 
L 414.72 307.584 
" style="fill: none; stroke: #000000; stroke-width: 0.8; stroke-linejoin: miter; stroke-linecap: square"/>
   </g>
   <g id="patch_6">
    <path d="M 57.6 41.472 
L 414.72 41.472 
" style="fill: none; stroke: #000000; stroke-width: 0.8; stroke-linejoin: miter; stroke-linecap: square"/>
   </g>
   <g id="text_16">
    <!-- Mercury's Argument of Periapsis $\omega$ -->
    <g transform="translate(131.76 35.472) scale(0.12 -0.12)">
     <defs>
      <path id="DejaVuSans-63" d="M 3122 3366 
L 3122 2828 
Q 2878 2963 2633 3030 
Q 2388 3097 2138 3097 
Q 1578 3097 1268 2742 
Q 959 2388 959 1747 
Q 959 1106 1268 751 
Q 1578 397 2138 397 
Q 2388 397 2633 464 
Q 2878 531 3122 666 
L 3122 134 
Q 2881 22 2623 -34 
Q 2366 -91 2075 -91 
Q 1284 -91 818 406 
Q 353 903 353 1747 
Q 353 2603 823 3093 
Q 1294 3584 2113 3584 
Q 2378 3584 2631 3529 
Q 2884 3475 3122 3366 
z
" transform="scale(0.015625)"/>
      <path id="DejaVuSans-50" d="M 1259 4147 
L 1259 2394 
L 2053 2394 
Q 2494 2394 2734 2622 
Q 2975 2850 2975 3272 
Q 2975 3691 2734 3919 
Q 2494 4147 2053 4147 
L 1259 4147 
z
M 628 4666 
L 2053 4666 
Q 2838 4666 3239 4311 
Q 3641 3956 3641 3272 
Q 3641 2581 3239 2228 
Q 2838 1875 2053 1875 
L 1259 1875 
L 1259 0 
L 628 0 
L 628 4666 
z
" transform="scale(0.015625)"/>
     </defs>
     <use xlink:href="#DejaVuSans-4d" transform="translate(0 0.015625)"/>
     <use xlink:href="#DejaVuSans-65" transform="translate(86.279297 0.015625)"/>
     <use xlink:href="#DejaVuSans-72" transform="translate(147.802734 0.015625)"/>
     <use xlink:href="#DejaVuSans-63" transform="translate(188.916016 0.015625)"/>
     <use xlink:href="#DejaVuSans-75" transform="translate(243.896484 0.015625)"/>
     <use xlink:href="#DejaVuSans-72" transform="translate(307.275391 0.015625)"/>
     <use xlink:href="#DejaVuSans-79" transform="translate(348.388672 0.015625)"/>
     <use xlink:href="#DejaVuSans-27" transform="translate(407.568359 0.015625)"/>
     <use xlink:href="#DejaVuSans-73" transform="translate(435.058594 0.015625)"/>
     <use xlink:href="#DejaVuSans-20" transform="translate(487.158203 0.015625)"/>
     <use xlink:href="#DejaVuSans-41" transform="translate(518.945312 0.015625)"/>
     <use xlink:href="#DejaVuSans-72" transform="translate(587.353516 0.015625)"/>
     <use xlink:href="#DejaVuSans-67" transform="translate(628.466797 0.015625)"/>
     <use xlink:href="#DejaVuSans-75" transform="translate(691.943359 0.015625)"/>
     <use xlink:href="#DejaVuSans-6d" transform="translate(755.322266 0.015625)"/>
     <use xlink:href="#DejaVuSans-65" transform="translate(852.734375 0.015625)"/>
     <use xlink:href="#DejaVuSans-6e" transform="translate(914.257812 0.015625)"/>
     <use xlink:href="#DejaVuSans-74" transform="translate(977.636719 0.015625)"/>
     <use xlink:href="#DejaVuSans-20" transform="translate(1016.845703 0.015625)"/>
     <use xlink:href="#DejaVuSans-6f" transform="translate(1048.632812 0.015625)"/>
     <use xlink:href="#DejaVuSans-66" transform="translate(1109.814453 0.015625)"/>
     <use xlink:href="#DejaVuSans-20" transform="translate(1145.019531 0.015625)"/>
     <use xlink:href="#DejaVuSans-50" transform="translate(1176.806641 0.015625)"/>
     <use xlink:href="#DejaVuSans-65" transform="translate(1237.109375 0.015625)"/>
     <use xlink:href="#DejaVuSans-72" transform="translate(1298.632812 0.015625)"/>
     <use xlink:href="#DejaVuSans-69" transform="translate(1339.746094 0.015625)"/>
     <use xlink:href="#DejaVuSans-61" transform="translate(1367.529297 0.015625)"/>
     <use xlink:href="#DejaVuSans-70" transform="translate(1428.808594 0.015625)"/>
     <use xlink:href="#DejaVuSans-73" transform="translate(1492.285156 0.015625)"/>
     <use xlink:href="#DejaVuSans-69" transform="translate(1544.384766 0.015625)"/>
     <use xlink:href="#DejaVuSans-73" transform="translate(1572.167969 0.015625)"/>
     <use xlink:href="#DejaVuSans-20" transform="translate(1624.267578 0.015625)"/>
     <use xlink:href="#DejaVuSans-Oblique-3c9" transform="translate(1656.054688 0.015625)"/>
    </g>
   </g>
   <g id="legend_1">
    <g id="patch_7">
     <path d="M 64.6 78.872 
L 202.4 78.872 
Q 204.4 78.872 204.4 76.872 
L 204.4 48.472 
Q 204.4 46.472 202.4 46.472 
L 64.6 46.472 
Q 62.6 46.472 62.6 48.472 
L 62.6 76.872 
Q 62.6 78.872 64.6 78.872 
z
" style="fill: #ffffff; opacity: 0.8; stroke: #cccccc; stroke-linejoin: miter"/>
    </g>
    <g id="line2d_29">
     <path d="M 66.6 54.572 
L 76.6 54.572 
L 86.6 54.572 
" style="fill: none; stroke: #1f77b4; stroke-width: 1.5; stroke-linecap: square"/>
    </g>
    <g id="text_17">
     <!-- $\omega$: Keplerian -->
     <g transform="translate(94.6 58.072) scale(0.1 -0.1)">
      <defs>
       <path id="DejaVuSans-3a" d="M 750 794 
L 1409 794 
L 1409 0 
L 750 0 
L 750 794 
z
M 750 3309 
L 1409 3309 
L 1409 2516 
L 750 2516 
L 750 3309 
z
" transform="scale(0.015625)"/>
       <path id="DejaVuSans-4b" d="M 628 4666 
L 1259 4666 
L 1259 2694 
L 3353 4666 
L 4166 4666 
L 1850 2491 
L 4331 0 
L 3500 0 
L 1259 2247 
L 1259 0 
L 628 0 
L 628 4666 
z
" transform="scale(0.015625)"/>
       <path id="DejaVuSans-6c" d="M 603 4863 
L 1178 4863 
L 1178 0 
L 603 0 
L 603 4863 
z
" transform="scale(0.015625)"/>
      </defs>
      <use xlink:href="#DejaVuSans-Oblique-3c9" transform="translate(0 0.015625)"/>
      <use xlink:href="#DejaVuSans-3a" transform="translate(83.740234 0.015625)"/>
      <use xlink:href="#DejaVuSans-20" transform="translate(117.431641 0.015625)"/>
      <use xlink:href="#DejaVuSans-4b" transform="translate(149.21875 0.015625)"/>
      <use xlink:href="#DejaVuSans-65" transform="translate(214.794922 0.015625)"/>
      <use xlink:href="#DejaVuSans-70" transform="translate(276.318359 0.015625)"/>
      <use xlink:href="#DejaVuSans-6c" transform="translate(339.794922 0.015625)"/>
      <use xlink:href="#DejaVuSans-65" transform="translate(367.578125 0.015625)"/>
      <use xlink:href="#DejaVuSans-72" transform="translate(429.101562 0.015625)"/>
      <use xlink:href="#DejaVuSans-69" transform="translate(470.214844 0.015625)"/>
      <use xlink:href="#DejaVuSans-61" transform="translate(497.998047 0.015625)"/>
      <use xlink:href="#DejaVuSans-6e" transform="translate(559.277344 0.015625)"/>
     </g>
    </g>
    <g id="line2d_30">
     <path d="M 66.6 69.272 
L 76.6 69.272 
L 86.6 69.272 
" style="fill: none; stroke: #ff7f0e; stroke-width: 1.5; stroke-linecap: square"/>
    </g>
    <g id="text_18">
     <!-- $\omega$: Accounting for GR -->
     <g transform="translate(94.6 72.772) scale(0.1 -0.1)">
      <defs>
       <path id="DejaVuSans-47" d="M 3809 666 
L 3809 1919 
L 2778 1919 
L 2778 2438 
L 4434 2438 
L 4434 434 
Q 4069 175 3628 42 
Q 3188 -91 2688 -91 
Q 1594 -91 976 548 
Q 359 1188 359 2328 
Q 359 3472 976 4111 
Q 1594 4750 2688 4750 
Q 3144 4750 3555 4637 
Q 3966 4525 4313 4306 
L 4313 3634 
Q 3963 3931 3569 4081 
Q 3175 4231 2741 4231 
Q 1884 4231 1454 3753 
Q 1025 3275 1025 2328 
Q 1025 1384 1454 906 
Q 1884 428 2741 428 
Q 3075 428 3337 486 
Q 3600 544 3809 666 
z
" transform="scale(0.015625)"/>
       <path id="DejaVuSans-52" d="M 2841 2188 
Q 3044 2119 3236 1894 
Q 3428 1669 3622 1275 
L 4263 0 
L 3584 0 
L 2988 1197 
Q 2756 1666 2539 1819 
Q 2322 1972 1947 1972 
L 1259 1972 
L 1259 0 
L 628 0 
L 628 4666 
L 2053 4666 
Q 2853 4666 3247 4331 
Q 3641 3997 3641 3322 
Q 3641 2881 3436 2590 
Q 3231 2300 2841 2188 
z
M 1259 4147 
L 1259 2491 
L 2053 2491 
Q 2509 2491 2742 2702 
Q 2975 2913 2975 3322 
Q 2975 3731 2742 3939 
Q 2509 4147 2053 4147 
L 1259 4147 
z
" transform="scale(0.015625)"/>
      </defs>
      <use xlink:href="#DejaVuSans-Oblique-3c9" transform="translate(0 0.015625)"/>
      <use xlink:href="#DejaVuSans-3a" transform="translate(83.740234 0.015625)"/>
      <use xlink:href="#DejaVuSans-20" transform="translate(117.431641 0.015625)"/>
      <use xlink:href="#DejaVuSans-41" transform="translate(149.21875 0.015625)"/>
      <use xlink:href="#DejaVuSans-63" transform="translate(217.626953 0.015625)"/>
      <use xlink:href="#DejaVuSans-63" transform="translate(272.607422 0.015625)"/>
      <use xlink:href="#DejaVuSans-6f" transform="translate(327.587891 0.015625)"/>
      <use xlink:href="#DejaVuSans-75" transform="translate(388.769531 0.015625)"/>
      <use xlink:href="#DejaVuSans-6e" transform="translate(452.148438 0.015625)"/>
      <use xlink:href="#DejaVuSans-74" transform="translate(515.527344 0.015625)"/>
      <use xlink:href="#DejaVuSans-69" transform="translate(554.736328 0.015625)"/>
      <use xlink:href="#DejaVuSans-6e" transform="translate(582.519531 0.015625)"/>
      <use xlink:href="#DejaVuSans-67" transform="translate(645.898438 0.015625)"/>
      <use xlink:href="#DejaVuSans-20" transform="translate(709.375 0.015625)"/>
      <use xlink:href="#DejaVuSans-66" transform="translate(741.162109 0.015625)"/>
      <use xlink:href="#DejaVuSans-6f" transform="translate(776.367188 0.015625)"/>
      <use xlink:href="#DejaVuSans-72" transform="translate(837.548828 0.015625)"/>
      <use xlink:href="#DejaVuSans-20" transform="translate(878.662109 0.015625)"/>
      <use xlink:href="#DejaVuSans-47" transform="translate(910.449219 0.015625)"/>
      <use xlink:href="#DejaVuSans-52" transform="translate(987.939453 0.015625)"/>
     </g>
    </g>
   </g>
  </g>
 </g>
 <defs>
  <clipPath id="p523b812624">
   <rect x="57.6" y="41.472" width="357.12" height="266.112"/>
  </clipPath>
 </defs>
</svg>
